<?xml version="1.0" encoding="UTF-8"?>
<svg width="414px" height="736px" viewBox="0 0 414 736" version="1.1" xmlns="http://www.w3.org/2000/svg" xmlns:xlink="http://www.w3.org/1999/xlink">
    <!-- Generator: Sketch 52.2 (67145) - http://www.bohemiancoding.com/sketch -->
    <title>iPhone 8</title>
    <desc>Created with Sketch.</desc>
    <defs>
        <rect id="path-1" x="0" y="0" width="414" height="57"></rect>
        <filter x="-0.1%" y="-0.4%" width="100.1%" height="100.9%" filterUnits="objectBoundingBox" id="filter-2">
            <feOffset dx="0" dy="0.5" in="SourceAlpha" result="shadowOffsetInner1"></feOffset>
            <feComposite in="shadowOffsetInner1" in2="SourceAlpha" operator="arithmetic" k2="-1" k3="1" result="shadowInnerInner1"></feComposite>
            <feColorMatrix values="0 0 0 0 0   0 0 0 0 0   0 0 0 0 0  0 0 0 0.25 0" type="matrix" in="shadowInnerInner1"></feColorMatrix>
        </filter>
    </defs>
    <g id="iPhone-8" stroke="none" stroke-width="1" fill="none" fill-rule="evenodd">
        <rect fill="#FAF0CA" x="0" y="0" width="414" height="736"></rect>
        <g id="Bars/Tab-Bar/3-Items" transform="translate(0.000000, 679.000000)">
            <g id="Bar">
                <use fill-opacity="0.9" fill="#0D3B66" fill-rule="evenodd" xlink:href="#path-1"></use>
                <use fill="black" fill-opacity="1" filter="url(#filter-2)" xlink:href="#path-1"></use>
            </g>
            <g id="Overrides/Tab-Bar/Item" transform="translate(321.552000, 4.000000)">
                <text id="Lists" font-family="Futura-Medium, Futura" font-size="10" font-weight="400" letter-spacing="0.119999997" fill="#8E8E93">
                    <tspan x="14.8132813" y="45.5">Lists</tspan>
                </text>
                <g id="Overrides/Tab-Bar/Icons/Unselected/1" transform="translate(0.000000, 2.000000)" fill="#CCCCCC" fill-rule="evenodd">
                    <path d="M35.9539643,12.901634 L28.0496227,12.901634 C27.5769371,12.9042304 27.1558005,12.6035912 27.0047097,12.1556962 L24.5699126,4.74681333 C24.4170427,4.30011836 23.9971284,4 23.5249996,4 C23.0528708,4 22.6329566,4.30011836 22.4800867,4.74681333 L20.0452895,12.1556962 C19.8941988,12.6035912 19.4730621,12.9042304 19.0003765,12.901634 L11.096035,12.901634 C10.6263914,12.8910954 10.2046057,13.1875798 10.0555036,13.6330511 C9.90640144,14.0785224 10.0647276,14.5691739 10.4460891,14.8434723 L16.8605548,19.4520883 C17.2395487,19.7212406 17.3995587,20.2055242 17.2555219,20.6474888 L14.8107255,28.0893688 C14.705656,28.4213337 14.7666996,28.7835751 14.9747601,29.0627724 C15.1828205,29.3419697 15.5124902,29.5040285 15.8606381,29.4982515 C16.0928005,29.4971693 16.3186269,29.422419 16.5055844,29.2847693 L22.8750538,24.7091504 C23.2637737,24.4311921 23.7862255,24.4311921 24.1749455,24.7091504 L30.5444149,29.2847693 C30.7313723,29.422419 30.9571988,29.4971693 31.1893612,29.4982515 C31.537509,29.5040285 31.8671787,29.3419697 32.0752392,29.0627724 C32.2832996,28.7835751 32.3443433,28.4213337 32.2392737,28.0893688 L29.7944774,20.6474888 C29.6504405,20.2055242 29.8104506,19.7212406 30.1894445,19.4520883 L36.6039101,14.8434723 C36.9852716,14.5691739 37.1435978,14.0785224 36.9944957,13.6330511 C36.8453935,13.1875798 36.4236078,12.8910954 35.9539643,12.901634 Z" id="Star"></path>
                </g>
            </g>
            <g id="Overrides/Tab-Bar/Item" transform="translate(183.000000, 4.000000)">
                <text id="Lists" font-family="Futura-Medium, Futura" font-size="10" font-weight="400" letter-spacing="0.119999997" fill="#8E8E93">
                    <tspan x="14.8132813" y="45.5">Lists</tspan>
                </text>
                <g id="Overrides/Tab-Bar/Icons/Unselected/1" transform="translate(0.000000, 2.000000)" fill="#CCCCCC" fill-rule="evenodd">
                    <path d="M35.9539643,12.901634 L28.0496227,12.901634 C27.5769371,12.9042304 27.1558005,12.6035912 27.0047097,12.1556962 L24.5699126,4.74681333 C24.4170427,4.30011836 23.9971284,4 23.5249996,4 C23.0528708,4 22.6329566,4.30011836 22.4800867,4.74681333 L20.0452895,12.1556962 C19.8941988,12.6035912 19.4730621,12.9042304 19.0003765,12.901634 L11.096035,12.901634 C10.6263914,12.8910954 10.2046057,13.1875798 10.0555036,13.6330511 C9.90640144,14.0785224 10.0647276,14.5691739 10.4460891,14.8434723 L16.8605548,19.4520883 C17.2395487,19.7212406 17.3995587,20.2055242 17.2555219,20.6474888 L14.8107255,28.0893688 C14.705656,28.4213337 14.7666996,28.7835751 14.9747601,29.0627724 C15.1828205,29.3419697 15.5124902,29.5040285 15.8606381,29.4982515 C16.0928005,29.4971693 16.3186269,29.422419 16.5055844,29.2847693 L22.8750538,24.7091504 C23.2637737,24.4311921 23.7862255,24.4311921 24.1749455,24.7091504 L30.5444149,29.2847693 C30.7313723,29.422419 30.9571988,29.4971693 31.1893612,29.4982515 C31.537509,29.5040285 31.8671787,29.3419697 32.0752392,29.0627724 C32.2832996,28.7835751 32.3443433,28.4213337 32.2392737,28.0893688 L29.7944774,20.6474888 C29.6504405,20.2055242 29.8104506,19.7212406 30.1894445,19.4520883 L36.6039101,14.8434723 C36.9852716,14.5691739 37.1435978,14.0785224 36.9944957,13.6330511 C36.8453935,13.1875798 36.4236078,12.8910954 35.9539643,12.901634 Z" id="Star"></path>
                </g>
            </g>
            <g id="Overrides/Tab-Bar/Item---Active" transform="translate(44.448000, 4.000000)" fill="#F4D35E">
                <text id="Lists" font-family="Futura-Medium, Futura" font-size="10" font-weight="400" letter-spacing="0.119999997">
                    <tspan x="14.8132813" y="45.5">Lists</tspan>
                </text>
                <g id="Overrides/Tab-Bar/Icons/Active/1" transform="translate(0.000000, 1.000000)" fill-rule="evenodd">
                    <path d="M35.9539643,12.901634 L28.0496227,12.901634 C27.5769371,12.9042304 27.1558005,12.6035912 27.0047097,12.1556962 L24.5699126,4.74681333 C24.4170427,4.30011836 23.9971284,4 23.5249996,4 C23.0528708,4 22.6329566,4.30011836 22.4800867,4.74681333 L20.0452895,12.1556962 C19.8941988,12.6035912 19.4730621,12.9042304 19.0003765,12.901634 L11.096035,12.901634 C10.6263914,12.8910954 10.2046057,13.1875798 10.0555036,13.6330511 C9.90640144,14.0785224 10.0647276,14.5691739 10.4460891,14.8434723 L16.8605548,19.4520883 C17.2395487,19.7212406 17.3995587,20.2055242 17.2555219,20.6474888 L14.8107255,28.0893688 C14.705656,28.4213337 14.7666996,28.7835751 14.9747601,29.0627724 C15.1828205,29.3419697 15.5124902,29.5040285 15.8606381,29.4982515 C16.0928005,29.4971693 16.3186269,29.422419 16.5055844,29.2847693 L22.8750538,24.7091504 C23.2637737,24.4311921 23.7862255,24.4311921 24.1749455,24.7091504 L30.5444149,29.2847693 C30.7313723,29.422419 30.9571988,29.4971693 31.1893612,29.4982515 C31.537509,29.5040285 31.8671787,29.3419697 32.0752392,29.0627724 C32.2832996,28.7835751 32.3443433,28.4213337 32.2392737,28.0893688 L29.7944774,20.6474888 C29.6504405,20.2055242 29.8104506,19.7212406 30.1894445,19.4520883 L36.6039101,14.8434723 C36.9852716,14.5691739 37.1435978,14.0785224 36.9944957,13.6330511 C36.8453935,13.1875798 36.4236078,12.8910954 35.9539643,12.901634 Z" id="Star"></path>
                </g>
            </g>
        </g>
        <g id="Bars/Search/Search-Bar" transform="translate(20.000000, 83.000000)" fill="#8E8E93">
            <g id="iPhone/Search-Bars/Search-Bar" transform="translate(16.000000, 0.000000)">
                <rect id="Search-Field" fill-opacity="0.12" x="0" y="0" width="343" height="36" rx="10"></rect>
                <g id="Glyphs/Dictation-Glyph" transform="translate(321.000000, 9.000000)">
                    <path d="M6,0 L6,0 C7.65685425,0 9,1.34314575 9,3 L9,10 C9,11.6568542 7.65685425,13 6,13 L6,13 C4.34314575,13 3,11.6568542 3,10 L3,3 C3,1.34314575 4.34314575,0 6,0 Z M11.25,6.5 C10.8357864,6.5 10.5,6.83578644 10.5,7.25 L10.5,10 C10.5,12.4852814 8.48528137,14.5 6,14.5 C3.51471863,14.5 1.5,12.4852814 1.5,10 L1.5,7.25 C1.5,6.83578644 1.16421356,6.5 0.75,6.5 C0.335786438,6.5 0,6.83578644 0,7.25 L0,10 C0.00148134437,13.0225955 2.25111105,15.5721759 5.25,15.95 L5.25,17.5 L3.25,17.5 C2.83578644,17.5 2.5,17.8357864 2.5,18.25 C2.5,18.6642136 2.83578644,19 3.25,19 L8.75,19 C9.16421356,19 9.5,18.6642136 9.5,18.25 C9.5,17.8357864 9.16421356,17.5 8.75,17.5 L6.75,17.5 L6.75,15.95 C9.74888895,15.5721759 11.9985187,13.0225955 12,10 L12,7.25 C12,6.83578644 11.6642136,6.5 11.25,6.5 L11.25,6.5 Z" id="Dictation"></path>
                </g>
                <g id="Content" transform="translate(8.000000, 7.000000)">
                    <text id="↳-Placeholder-Label" font-family="Helvetica" font-size="17" font-weight="normal" line-spacing="22" letter-spacing="-0.408">
                        <tspan x="21" y="16">Search</tspan>
                    </text>
                    <g id="Glyphs/Search" transform="translate(0.000000, 4.000000)">
                        <path d="M13.7430947,12.5740557 L9.91009465,8.73955572 C10.5971654,7.80245935 10.9652265,6.66953223 10.9600947,5.50755572 C10.946985,2.47441147 8.49371664,0.0175744397 5.46059465,5.57178262e-05 C4.00907481,-0.00651157295 2.61521603,0.567712287 1.58953064,1.59480646 C0.56384524,2.62190064 -0.00846492859,4.01654626 9.46502197e-05,5.46805572 C0.0132043609,8.50147611 2.46669652,10.958537 5.50009465,10.9760557 C6.66680484,10.9811124 7.80387114,10.6087552 8.74159465,9.91455572 L8.74559465,9.91155572 L12.5750947,13.7430557 C12.7821435,13.9602692 13.0906604,14.0481921 13.3811096,13.9727584 C13.6715587,13.8973248 13.898302,13.6703873 13.9734871,13.3798737 C14.0486722,13.0893602 13.9604853,12.7809186 13.7430947,12.5740557 L13.7430947,12.5740557 Z M5.49609465,9.87805572 C3.06950871,9.86409673 1.1067469,7.89865842 1.09609465,5.47205572 C1.08954524,4.31099854 1.54743104,3.19550612 2.36782487,2.37389147 C3.1882187,1.55227681 4.30302902,1.09273279 5.46409465,1.09755572 C7.89068059,1.1115147 9.8534424,3.07695301 9.86409465,5.50355572 C9.87064406,6.6646129 9.41275826,7.78010532 8.59236443,8.60171997 C7.7719706,9.42333462 6.65716028,9.88287864 5.49609465,9.87805572 Z" id="Search"></path>
                    </g>
                </g>
            </g>
        </g>
        <path d="M-0.5,143 L419.5,143" id="Line" stroke="#FFFFFF" fill="#000000" stroke-linecap="square"></path>
        <g id="Group" transform="translate(40.000000, 18.000000)">
            <rect id="Rectangle" fill="#EE964B" x="0" y="0" width="139" height="41" rx="20.5"></rect>
            <text id="Recipes" fill="#FFFFFF" font-family="Futura-Medium, Futura" font-size="28" font-weight="400" letter-spacing="1.41999996">
                <tspan x="16.6032423" y="29">Recipes</tspan>
            </text>
        </g>
        <g id="Group" opacity="0.629859561" transform="translate(209.000000, 18.000000)">
            <rect id="Rectangle" fill="#CCCCCC" x="0" y="0" width="166" height="41" rx="20.5"></rect>
            <text id="Coupons" fill="#A7A7A7" style="mix-blend-mode: soft-light;" font-family="Futura-Medium, Futura" font-size="28" font-weight="400" letter-spacing="1.41999996">
                <tspan x="22.5094923" y="29">Coupons</tspan>
            </text>
        </g>
        <g id="Group" transform="translate(0.000000, 151.000000)">
            <path d="M0.5,50 L420.5,50" id="Line" stroke="#FFFFFF" fill="#000000" stroke-linecap="square"></path>
            <text id="Tomato-Soup" font-family="Futura-Medium, Futura" font-size="28" font-weight="400" letter-spacing="1.41999996" fill="#6A6A6A">
                <tspan x="18" y="29">Tomato Soup</tspan>
            </text>
        </g>
        <g id="Group" transform="translate(0.000000, 210.000000)">
            <path d="M0.5,50 L420.5,50" id="Line" stroke="#FFFFFF" fill="#000000" stroke-linecap="square"></path>
            <text id="Taco-Soup" font-family="Futura-Medium, Futura" font-size="28" font-weight="400" letter-spacing="1.41999996" fill="#6A6A6A">
                <tspan x="18" y="29">Taco Soup</tspan>
            </text>
            <g transform="translate(0.000000, 60.000000)">
                <path d="M0.5,50 L420.5,50" id="Line" stroke="#FFFFFF" fill="#000000" stroke-linecap="square"></path>
                <text id="Fermented-Salsa" font-family="Futura-Medium, Futura" font-size="28" font-weight="400" letter-spacing="1.41999996" fill="#6A6A6A">
                    <tspan x="18" y="29">Fermented Salsa</tspan>
                </text>
            </g>
        </g>
    </g>
</svg>