<?xml version="1.0" encoding="UTF-8"?>
<svg width="414px" height="736px" viewBox="0 0 414 736" version="1.1" xmlns="http://www.w3.org/2000/svg" xmlns:xlink="http://www.w3.org/1999/xlink">
    <!-- Generator: Sketch 52.2 (67145) - http://www.bohemiancoding.com/sketch -->
    <title>iPhone 8</title>
    <desc>Created with Sketch.</desc>
    <defs>
        <rect id="path-1" x="0" y="0" width="414" height="57"></rect>
        <filter x="-0.1%" y="-0.4%" width="100.1%" height="100.9%" filterUnits="objectBoundingBox" id="filter-2">
            <feOffset dx="0" dy="0.5" in="SourceAlpha" result="shadowOffsetInner1"></feOffset>
            <feComposite in="shadowOffsetInner1" in2="SourceAlpha" operator="arithmetic" k2="-1" k3="1" result="shadowInnerInner1"></feComposite>
            <feColorMatrix values="0 0 0 0 0   0 0 0 0 0   0 0 0 0 0  0 0 0 0.25 0" type="matrix" in="shadowInnerInner1"></feColorMatrix>
        </filter>
    </defs>
    <g id="iPhone-8" stroke="none" stroke-width="1" fill="none" fill-rule="evenodd">
        <rect fill="#FAF0CA" x="0" y="0" width="414" height="736"></rect>
        <g id="Bars/Tab-Bar/3-Items" transform="translate(0.000000, 679.000000)">
            <g id="Bar">
                <use fill-opacity="0.9" fill="#0D3B66" fill-rule="evenodd" xlink:href="#path-1"></use>
                <use fill="black" fill-opacity="1" filter="url(#filter-2)" xlink:href="#path-1"></use>
            </g>
            <g id="Overrides/Tab-Bar/Item" transform="translate(321.552000, 4.000000)">
                <text id="Lists" font-family="Futura-Medium, Futura" font-size="10" font-weight="400" letter-spacing="0.119999997" fill="#8E8E93">
                    <tspan x="14.8132813" y="45.5">Lists</tspan>
                </text>
                <g id="Overrides/Tab-Bar/Icons/Unselected/1" transform="translate(0.000000, 2.000000)" fill="#CCCCCC" fill-rule="evenodd">
                    <path d="M35.9539643,12.901634 L28.0496227,12.901634 C27.5769371,12.9042304 27.1558005,12.6035912 27.0047097,12.1556962 L24.5699126,4.74681333 C24.4170427,4.30011836 23.9971284,4 23.5249996,4 C23.0528708,4 22.6329566,4.30011836 22.4800867,4.74681333 L20.0452895,12.1556962 C19.8941988,12.6035912 19.4730621,12.9042304 19.0003765,12.901634 L11.096035,12.901634 C10.6263914,12.8910954 10.2046057,13.1875798 10.0555036,13.6330511 C9.90640144,14.0785224 10.0647276,14.5691739 10.4460891,14.8434723 L16.8605548,19.4520883 C17.2395487,19.7212406 17.3995587,20.2055242 17.2555219,20.6474888 L14.8107255,28.0893688 C14.705656,28.4213337 14.7666996,28.7835751 14.9747601,29.0627724 C15.1828205,29.3419697 15.5124902,29.5040285 15.8606381,29.4982515 C16.0928005,29.4971693 16.3186269,29.422419 16.5055844,29.2847693 L22.8750538,24.7091504 C23.2637737,24.4311921 23.7862255,24.4311921 24.1749455,24.7091504 L30.5444149,29.2847693 C30.7313723,29.422419 30.9571988,29.4971693 31.1893612,29.4982515 C31.537509,29.5040285 31.8671787,29.3419697 32.0752392,29.0627724 C32.2832996,28.7835751 32.3443433,28.4213337 32.2392737,28.0893688 L29.7944774,20.6474888 C29.6504405,20.2055242 29.8104506,19.7212406 30.1894445,19.4520883 L36.6039101,14.8434723 C36.9852716,14.5691739 37.1435978,14.0785224 36.9944957,13.6330511 C36.8453935,13.1875798 36.4236078,12.8910954 35.9539643,12.901634 Z" id="Star"></path>
                </g>
            </g>
            <g id="Overrides/Tab-Bar/Item" transform="translate(183.000000, 4.000000)">
                <text id="Lists" font-family="Futura-Medium, Futura" font-size="10" font-weight="400" letter-spacing="0.119999997" fill="#8E8E93">
                    <tspan x="14.8132813" y="45.5">Lists</tspan>
                </text>
                <g id="Overrides/Tab-Bar/Icons/Unselected/1" transform="translate(0.000000, 2.000000)" fill="#CCCCCC" fill-rule="evenodd">
                    <path d="M35.9539643,12.901634 L28.0496227,12.901634 C27.5769371,12.9042304 27.1558005,12.6035912 27.0047097,12.1556962 L24.5699126,4.74681333 C24.4170427,4.30011836 23.9971284,4 23.5249996,4 C23.0528708,4 22.6329566,4.30011836 22.4800867,4.74681333 L20.0452895,12.1556962 C19.8941988,12.6035912 19.4730621,12.9042304 19.0003765,12.901634 L11.096035,12.901634 C10.6263914,12.8910954 10.2046057,13.1875798 10.0555036,13.6330511 C9.90640144,14.0785224 10.0647276,14.5691739 10.4460891,14.8434723 L16.8605548,19.4520883 C17.2395487,19.7212406 17.3995587,20.2055242 17.2555219,20.6474888 L14.8107255,28.0893688 C14.705656,28.4213337 14.7666996,28.7835751 14.9747601,29.0627724 C15.1828205,29.3419697 15.5124902,29.5040285 15.8606381,29.4982515 C16.0928005,29.4971693 16.3186269,29.422419 16.5055844,29.2847693 L22.8750538,24.7091504 C23.2637737,24.4311921 23.7862255,24.4311921 24.1749455,24.7091504 L30.5444149,29.2847693 C30.7313723,29.422419 30.9571988,29.4971693 31.1893612,29.4982515 C31.537509,29.5040285 31.8671787,29.3419697 32.0752392,29.0627724 C32.2832996,28.7835751 32.3443433,28.4213337 32.2392737,28.0893688 L29.7944774,20.6474888 C29.6504405,20.2055242 29.8104506,19.7212406 30.1894445,19.4520883 L36.6039101,14.8434723 C36.9852716,14.5691739 37.1435978,14.0785224 36.9944957,13.6330511 C36.8453935,13.1875798 36.4236078,12.8910954 35.9539643,12.901634 Z" id="Star"></path>
                </g>
            </g>
            <g id="Overrides/Tab-Bar/Item---Active" transform="translate(44.448000, 4.000000)" fill="#F4D35E">
                <text id="Lists" font-family="Futura-Medium, Futura" font-size="10" font-weight="400" letter-spacing="0.119999997">
                    <tspan x="14.8132813" y="45.5">Lists</tspan>
                </text>
                <g id="Overrides/Tab-Bar/Icons/Active/1" transform="translate(0.000000, 1.000000)" fill-rule="evenodd">
                    <path d="M35.9539643,12.901634 L28.0496227,12.901634 C27.5769371,12.9042304 27.1558005,12.6035912 27.0047097,12.1556962 L24.5699126,4.74681333 C24.4170427,4.30011836 23.9971284,4 23.5249996,4 C23.0528708,4 22.6329566,4.30011836 22.4800867,4.74681333 L20.0452895,12.1556962 C19.8941988,12.6035912 19.4730621,12.9042304 19.0003765,12.901634 L11.096035,12.901634 C10.6263914,12.8910954 10.2046057,13.1875798 10.0555036,13.6330511 C9.90640144,14.0785224 10.0647276,14.5691739 10.4460891,14.8434723 L16.8605548,19.4520883 C17.2395487,19.7212406 17.3995587,20.2055242 17.2555219,20.6474888 L14.8107255,28.0893688 C14.705656,28.4213337 14.7666996,28.7835751 14.9747601,29.0627724 C15.1828205,29.3419697 15.5124902,29.5040285 15.8606381,29.4982515 C16.0928005,29.4971693 16.3186269,29.422419 16.5055844,29.2847693 L22.8750538,24.7091504 C23.2637737,24.4311921 23.7862255,24.4311921 24.1749455,24.7091504 L30.5444149,29.2847693 C30.7313723,29.422419 30.9571988,29.4971693 31.1893612,29.4982515 C31.537509,29.5040285 31.8671787,29.3419697 32.0752392,29.0627724 C32.2832996,28.7835751 32.3443433,28.4213337 32.2392737,28.0893688 L29.7944774,20.6474888 C29.6504405,20.2055242 29.8104506,19.7212406 30.1894445,19.4520883 L36.6039101,14.8434723 C36.9852716,14.5691739 37.1435978,14.0785224 36.9944957,13.6330511 C36.8453935,13.1875798 36.4236078,12.8910954 35.9539643,12.901634 Z" id="Star"></path>
                </g>
            </g>
        </g>
        <rect id="Rectangle" fill="#EE964B" x="0" y="0" width="417" height="51"></rect>
        <g id="Top-Bar" transform="translate(14.000000, 1.000000)">
            <text id="List-Name" fill="#FFFFFF" font-family="Futura-Medium, Futura" font-size="36" font-weight="400" letter-spacing="1.41999996">
                <tspan x="0" y="37">List Name</tspan>
            </text>
            <g id="Group-6" transform="translate(284.000000, 10.000000)">
                <path d="M13.5,0 L93.5,0 C100.955844,-1.36961635e-15 107,6.04415588 107,13.5 L107,13.5 C107,20.9558441 100.955844,27 93.5,27 L13.5,27 C6.04415588,27 -6.19234979e-15,20.9558441 -7.10542736e-15,13.5 L-1.77635684e-15,13.5 C-2.6894344e-15,6.04415588 6.04415588,1.36961635e-15 13.5,0 Z" id="Rectangle" fill="#F4D35E"></path>
                <text id="OPTIMIZE" fill="#0D3B66" font-family="Futura-Medium, Futura" font-size="17" font-weight="400" line-spacing="20" letter-spacing="1.86000001">
                    <tspan x="7" y="21">OPTIMIZ</tspan>
                    <tspan x="89.5888478" y="21">E</tspan>
                </text>
            </g>
        </g>
        <path d="M-3.5,51 L416.5,51" id="Line" stroke="#FFFFFF" fill="#000000" stroke-linecap="square"></path>
        <g id="First-Item" transform="translate(-1.000000, 60.000000)">
            <g id="Group">
                <path d="M0.491686461,50 L413.508314,50" id="Line" stroke="#FFFFFF" fill="#000000" stroke-linecap="square"></path>
                <text id="Apples" font-family="Futura-Medium, Futura" font-size="28" font-weight="400" letter-spacing="1.41999996" fill="#6A6A6A">
                    <tspan x="72" y="29">Apples</tspan>
                </text>
            </g>
            <rect id="Rectangle" stroke="#6A6A6A" stroke-width="3" x="20.5" y="9.5" width="22" height="22"></rect>
        </g>
        <g id="Coupons-Button" transform="translate(238.000000, 624.000000)">
            <rect id="Rectangle" fill="#FFFFFF" x="0" y="0" width="167" height="33" rx="16.5"></rect>
            <text id="COUPONS" fill="#EE964B" font-family="Futura-Medium, Futura" font-size="27" font-weight="400" letter-spacing="1.3692857">
                <tspan x="11.3129493" y="28">COUPONS</tspan>
            </text>
        </g>
        <g id="Second-Item" transform="translate(0.000000, 120.000000)">
            <g id="Group">
                <path d="M0.491686461,50 L413.508314,50" id="Line" stroke="#FFFFFF" fill="#000000" stroke-linecap="square"></path>
                <text id="Yogurt" font-family="Futura-Medium, Futura" font-size="28" font-weight="400" letter-spacing="1.41999996" fill="#6A6A6A">
                    <tspan x="69" y="29">Yogurt</tspan>
                </text>
            </g>
            <rect id="Rectangle" stroke="#6A6A6A" stroke-width="3" x="19.5" y="9.5" width="22" height="22"></rect>
        </g>
        <g id="Add-Item" transform="translate(0.000000, 180.000000)">
            <path d="M0.5,50 L420.5,50" id="Line" stroke="#FFFFFF" fill="#000000" stroke-linecap="square"></path>
            <text font-family="Futura-Medium, Futura" font-size="28" font-weight="400" letter-spacing="1.41999996" fill="#EE964B">
                <tspan x="18" y="29">Add Item</tspan>
            </text>
            <g id="Add-Button" transform="translate(161.000000, 10.000000)" stroke="#EE964B" stroke-width="3">
                <ellipse id="Oval" cx="10" cy="10.5" rx="10" ry="10.5"></ellipse>
                <path d="M10,5.5 L10,15.5" id="Line-2" stroke-linecap="square"></path>
                <path d="M5.5,10.5 L14.5,10.5" id="Line-2" stroke-linecap="square"></path>
            </g>
        </g>
        <g id="Back-Button" transform="translate(14.000000, 607.000000)">
            <circle id="Oval" fill="#F95738" cx="29" cy="29" r="29"></circle>
            <path id="Line-3" d="M25.3333333,31.5 L7.5,31.5 C6.3954305,31.5 5.5,30.6045695 5.5,29.5 C5.5,28.3954305 6.3954305,27.5 7.5,27.5 L25.3333333,27.5 L25.3333333,18.9316263 C25.3333333,18.1409609 25.9742943,17.5 26.7649597,17.5 C26.9872126,17.5 27.2064133,17.5517463 27.4052024,17.6511408 L48.5416362,28.2193577 C49.2488288,28.572954 49.5354752,29.4328933 49.1818789,30.140086 C49.0433495,30.4171449 48.8186951,30.6417992 48.5416362,30.7803287 L27.4052024,41.3485456 C26.6980098,41.7021419 25.8380705,41.4154954 25.4844741,40.7083028 C25.3850796,40.5095137 25.3333333,40.290313 25.3333333,40.0680601 L25.3333333,31.5 Z" fill="#FFFFFF" fill-rule="nonzero"></path>
        </g>
    </g>
</svg>